<svg width="1366" height="957" viewBox="0 0 1366 957" fill="none" xmlns="http://www.w3.org/2000/svg">
<path d="M1461.2 242.358C1452.99 252.204 1410.85 313.154 1401 323C1369.82 355.82 1225.58 360.987 1230.5 413.5C1233.78 436.474 1259.31 452.859 1279 454.5C1301.97 456.141 1420.17 431.075 1423.46 462.254C1428.38 503.279 1350.47 511.539 1327.5 546C1301.24 585.384 1356.17 628.552 1347.97 674.5C1346.33 681.064 1377.36 713.436 1379 720C1382.28 729.846 1394.44 747.795 1401 756C1423.97 783.897 1336.77 807.039 1322 841.5C1307.23 875.961 1334.56 877.898 1328 914C1328 915.641 1319 954.559 1319 956.2H1367.66C1405.41 929.944 1436.58 893.841 1459.56 854.457V242.358H1461.2Z" fill="#FFC6C6"/>
<path d="M1237.5 458.5C1232.58 455.218 1215.92 460.859 1211 462.5C1186.38 467.423 1163.99 462.026 1152.5 485C1137.73 511.256 1136.28 655.744 1119.86 682C1105.1 704.974 1073.78 679.423 1070.5 674.5C1063.94 661.372 1108.91 527.218 1092.5 530.5C1069.53 535.423 1086.91 485.449 1070.5 503.5C993.372 585.551 868.789 852.813 817.918 954.556H963.968C967.25 949.633 978.218 902.064 981.5 895.5C994.628 872.526 989.526 811.846 1012.5 802C1015.78 800.359 1030.22 798.718 1033.5 802C1036.78 803.641 1051.86 840.218 1053.5 843.5C1058.42 853.346 1090.01 872.641 1101.5 871C1135.96 866.077 1153.65 804.615 1163.5 780C1189.76 722.564 1137.24 750.435 1163.5 693C1173.35 673.308 1173.22 615.333 1176.5 594C1181.42 582.513 1247.35 465.064 1237.5 458.5Z" fill="#FFC6C6"/>
<path d="M1204 201.5C1169.54 214.628 1166.26 89.8848 1140 114.5C1128.51 124.346 1125.49 103.013 1114 114.5C1076.26 150.602 1115.62 359.411 1091 407C1064.74 457.872 964.462 539.628 994 590.5C1003.85 606.91 1044.95 549.205 1063 541C1069.56 537.718 1080.58 519.923 1085.5 515C1118.32 480.539 1215.6 480.743 1243.5 443C1253.35 429.872 1243.35 405.987 1233.5 394.5C1225.29 384.654 1182.6 361.078 1183.5 344C1185.14 312.821 1208.88 346.692 1233.5 327C1269.6 295.821 1261 237.435 1275.77 193.128C1280.69 180 1320.35 124.346 1310.5 114.5C1299.01 101.372 1215.49 196.577 1204 201.5Z" fill="#FFC6C6"/>
<path d="M1083 44C1068.23 42.359 1021.28 66.7691 1018 52C1016.36 43.7949 1034 20.5 1028 12.5C1023.08 5.93593 971.705 35.859 963.5 37.5C958.577 37.5 942.423 66.5 937.5 66.5C930.936 64.859 931.141 64.423 929.5 59.5C927.859 54.577 941.359 14.423 943 9.5C956.128 -15.1152 1013.21 -61.2327 1032.9 -79.2839C1054.23 -97.3351 1075.56 -113.745 1091.97 -136.719C1106.74 -156.412 1119.87 -192.514 1108.38 -217.129C1088.69 -256.514 1029.62 -202.36 1011.56 -185.95C947.565 -126.873 911.463 -63.4356 847.463 -6C817.925 21.8973 766.846 71.9746 757 113C750.436 137.615 713.385 195.295 738 203.5C760.974 211.705 893.218 26.1926 896.5 70.5C896.5 77.0641 877.282 112.936 874 119.5C806.718 291.807 630.849 426.149 545.516 585.328C535.67 605.02 494.59 688.231 511 703C517.564 707.923 532.295 718 540.5 718C561.833 721.282 592.526 621.782 615.5 618.5C628.628 615.218 611.795 648.013 620 659.5C631.487 674.269 595.769 694.872 581 708C507.154 772 537.987 766 462.5 830C441.167 848.051 391.26 934.864 373.209 956.198H581C597.41 944.71 638.436 882.051 645 864C656.487 829.539 775.258 801.115 796.591 776.5C821.207 746.962 698.603 703.256 726.5 677C767.525 634.334 797.18 667.73 830 618.5C841.487 600.449 942.642 580.405 926.232 565.636C921.309 560.713 913.104 559.072 904.899 557.431C885.206 555.79 867.155 559.072 847.463 560.713C827.771 560.713 806.438 555.79 796.591 541.021C762.13 491.79 834.335 440.918 857.309 404.816C891.77 352.303 905.552 221.666 951.5 179C989.243 142.898 1000.08 160.525 1032.9 119.5C1044.38 104.731 1113.31 93.4742 1108.38 70.5C1105.1 47.5258 1099.41 45.641 1083 44Z" fill="#FFC6C6"/>
<path d="M515.5 133C497.449 139.564 536.987 212.231 525.5 227C491.039 271.307 507.538 370.911 478 418.5C387.744 561.269 267.205 644.385 195 797C181.872 826.538 184.91 850.603 168.5 878.5C158.654 894.91 86.0297 941.434 67.9785 952.921H255.054C255.054 952.921 291.157 954.562 292.798 952.921C319.054 921.742 326.231 901.602 341 865.5C345.923 850.731 345.923 848.269 341 833.5C336.077 818.731 261.157 857.706 255.054 845.5C248.49 832.372 248.49 792.987 255.054 781.5C261.618 770.013 331.154 660.346 341 650.5C431.256 561.885 377.885 815.615 466.5 727C489.474 704.026 590.167 409.615 611.5 385C634.474 357.103 652.205 257.243 644 219.5C635.795 186.68 543.397 121.513 515.5 133Z" fill="#FFC6C6"/>
<path d="M23 783C29.5641 712.436 109.474 658.641 86.5 593C84.859 584.795 51.5641 610.282 45 607C33.5129 602.077 31.2051 636.295 23 644.5C21.359 646.141 -14.0738 701.84 -15.7148 703.481V954.557H25.3106C17.1055 944.71 21.359 796.128 23 783Z" fill="#FFC6C6"/>
<path d="M865.508 -399.277C842.534 -394.354 812.995 -345.123 798.226 -328.713C760.483 -284.405 722.739 -236.816 666.945 -212.201C620.996 -192.509 652.176 -249.944 648.894 -267.995C643.971 -289.328 630.842 -287.687 616.073 -276.2C588.176 -256.508 570.125 -217.124 553.715 -187.586C530.74 -146.56 506.125 -105.534 478.228 -66.15C456.895 -34.9707 476.474 -34.5383 453.5 -5C438.731 14.6922 390.128 0.0257721 377 23C365.513 42.6922 361.128 -69.4102 348 -53C315.18 -13.6156 288.307 162.244 244 188.5C237.436 193.423 210.205 221.141 202 219.5C187.231 216.218 221.141 120.769 219.5 106C217.859 91.2309 207.91 66.359 191.5 68C184.936 68 169.717 81.5413 164.794 86.4644C148.384 102.875 100.794 214.464 87.6661 232.515C66.3328 263.694 49.9226 296.515 28.5894 327.694C13.8202 349.027 -0.94882 368.719 -19 386.77V534.462C-7.51289 522.975 99.3719 364.487 112.5 353C117.423 348.077 167.295 323 175.5 323C190.269 321.359 191.5 341.731 191.5 356.5C189.859 371.269 -5.28203 569.231 -2 584C2.92305 605.333 -17.9742 644.064 5 637.5C26.3332 632.577 82.2309 585.91 97 569.5C231.563 418.527 232.075 365.55 369.921 219.5C383.049 204.731 439.808 121.141 459.5 119.5C487.397 116.218 454.09 178.654 470.5 188.5C483.628 198.346 507.731 196.705 522.5 188.5C553.679 170.449 698.124 -5.43257 717.816 -36.6119C750.637 -85.8424 775.252 -139.996 803.149 -190.867C831.046 -241.739 865.508 -286.046 885.2 -341.841C898.328 -369.738 903.251 -407.482 865.508 -399.277ZM671.868 -69.4322C665.304 -57.9451 658.74 -44.817 648.894 -36.6119C645.612 -34.9709 643.97 -31.689 639.047 -31.689C632.483 -31.689 629.201 -39.8939 630.842 -44.817C632.483 -49.74 635.766 -56.3042 637.407 -62.8683C642.33 -79.2784 634.124 -128.509 665.304 -123.586C691.56 -120.304 680.073 -84.2014 671.868 -69.4322Z" fill="#FFC6C6"/>
<path d="M41 49C19.6668 44.077 2.33634 -9.26915 -15.7148 5.49999V199.694C-7.50976 189.848 10.2949 158.346 18.5 148.5C43.1152 120.603 106.641 90.7434 105 53C105 48.077 102.282 39.282 99 36C97.359 31.077 44.282 49 41 49Z" fill="#FFC6C6"/>
</svg>
