<svg width="1366" height="957" viewBox="0 0 1366 957" fill="none" xmlns="http://www.w3.org/2000/svg">
<path d="M1461.2 242.358C1452.99 252.204 1443.15 262.05 1433.3 271.896C1402.12 304.716 1269.58 366.987 1274.5 419.5C1277.78 442.474 1316.81 460.613 1336.5 462.254C1359.47 463.895 1420.17 431.075 1423.46 462.254C1428.38 503.279 1349.61 538.039 1326.64 572.5C1300.38 611.884 1356.17 628.552 1347.97 674.5C1346.33 681.064 1331.36 714.936 1333 721.5C1336.28 731.346 1338.12 736.304 1344.69 744.509C1367.66 772.406 1385.27 830.539 1370.5 865C1355.73 899.461 1311.87 915.175 1305.3 951.277C1305.3 952.918 1305.3 954.559 1305.3 956.2H1367.66C1405.4 929.944 1436.58 893.841 1459.56 854.457V242.358H1461.2Z" fill="#FFEDED"/>
<path d="M1234 503.5C1229.08 500.218 1223.42 501.859 1218.5 503.5C1193.88 508.423 1164.49 540.526 1153 563.5C1138.23 589.756 1119.91 710.244 1103.5 736.5C1088.73 759.474 1079.78 731.923 1076.5 727C1069.94 713.872 1086.91 598.718 1070.5 602C1047.53 606.923 1032.41 579.949 1016 598C938.872 680.051 868.789 852.813 817.918 954.556H963.968C967.25 949.633 985.218 926.064 988.5 919.5C1001.63 896.526 993.026 852.346 1016 842.5C1019.28 840.859 1041.22 841.718 1044.5 845C1047.78 846.641 1052.86 854.218 1054.5 857.5C1059.42 867.346 1038.01 956.197 1049.5 954.556C1083.96 949.633 1110.02 836.403 1119.86 811.788C1146.12 754.353 1207.74 662.936 1234 605.5C1243.85 585.808 1207.72 603.833 1211 582.5C1215.92 571.013 1243.85 510.064 1234 503.5Z" fill="#FFEDED"/>
<path d="M1234.74 148.82C1200.28 161.948 1166.26 89.8847 1140 114.5C1128.51 124.346 1037.49 281.513 1026 293C988.256 329.102 1115.62 359.411 1091 407C1064.74 457.872 933.462 505.129 963 556C972.846 572.41 1037.82 554.152 1055.87 545.946C1062.44 542.664 1067.36 539.382 1072.28 534.459C1105.1 499.998 1160.9 559.075 1188.8 521.331C1198.64 508.203 1228.35 442.487 1218.5 431C1210.29 421.154 1170.6 409.078 1171.5 392C1173.14 360.821 1210.88 406.692 1235.5 387C1271.6 355.821 1261 237.435 1275.77 193.128C1280.69 180 1320.35 124.346 1310.5 114.5C1299.01 101.372 1246.23 143.897 1234.74 148.82Z" fill="#FFEDED"/>
<path d="M1083 44C1068.23 42.359 1038.78 64.2691 1035.5 49.5C1033.86 41.2949 1052.5 2 1046.5 -6C1041.58 -12.5641 1004.21 17.359 996 19C991.077 19 976.923 17.536 972 17.536C965.436 15.895 947.641 48.923 946 44C944.359 39.077 946.859 22.459 948.5 17.536C961.628 -7.07925 1013.21 -61.2327 1032.9 -79.2839C1054.23 -97.3351 1075.56 -113.745 1091.97 -136.719C1106.74 -156.412 1119.87 -192.514 1108.38 -217.129C1088.69 -256.514 1029.62 -202.36 1011.56 -185.95C947.565 -126.873 883.565 -67.7966 819.566 -10.361C790.027 17.5363 737.846 82.9746 728 124C721.436 148.615 732.385 170.295 757 178.5C779.974 186.705 901.617 55.1926 904.899 99.5C904.899 106.064 899.782 124.436 896.5 131C829.218 303.307 630.849 426.149 545.516 585.328C535.67 605.02 494.59 688.231 511 703C517.564 707.923 532.295 718 540.5 718C561.833 721.282 592.526 621.782 615.5 618.5C628.628 615.218 611.795 648.013 620 659.5C631.487 674.269 595.769 694.872 581 708C507.154 772 512.487 753.5 437 817.5C415.667 835.551 391.26 934.864 373.209 956.198H581C597.41 944.71 594.936 865.942 601.5 847.89C612.987 813.429 735.667 900.115 757 875.5C781.615 845.962 700.103 744.256 728 718C769.025 675.334 886.847 675.584 919.668 626.353C931.155 608.302 942.642 580.405 926.232 565.636C921.309 560.713 913.104 559.072 904.899 557.431C885.206 555.79 867.155 559.072 847.463 560.713C827.771 560.713 806.438 555.79 796.591 541.021C762.13 491.79 834.335 440.918 857.309 404.816C891.77 352.303 900.052 301.166 946 258.5C983.743 222.398 1037.68 172.025 1070.5 131C1081.99 116.231 1141.42 93.4742 1136.5 70.5C1133.22 47.5258 1099.41 45.641 1083 44Z" fill="#FFEDED"/>
<path d="M561.924 150C543.873 156.564 514.487 185.231 503 200C468.539 244.308 474.951 349.027 445.412 396.617C355.156 539.385 249.205 578.385 177 731C163.872 760.538 140.91 878.603 124.5 906.5C114.654 922.91 86.0297 941.434 67.9785 952.921H255.054C255.054 952.921 291.157 954.562 292.798 952.921C319.054 921.742 326.231 901.602 341 865.5C345.923 850.731 363.423 810.269 358.5 795.5C353.577 780.731 286.603 824 280.5 811.794C273.936 798.666 276.936 758.987 283.5 747.5C290.064 736.013 299.154 717.846 309 708C399.256 619.385 414.385 756.615 503 668C525.974 645.026 635.667 421.232 657 396.617C679.974 368.719 682.205 210.743 674 173C665.795 140.18 589.822 138.513 561.924 150Z" fill="#FFEDED"/>
<path d="M17.1055 913.531C23.6695 842.967 90.9742 693.141 68 627.5C66.359 619.295 51.5641 610.282 45 607C33.5129 602.077 16.2051 627.295 8 635.5C6.35898 637.141 -14.0738 701.84 -15.7148 703.481V954.556H25.3106C17.1055 944.71 15.4645 926.659 17.1055 913.531Z" fill="#FFEDED"/>
<path d="M865.508 -399.277C842.534 -394.354 812.995 -345.123 798.226 -328.713C760.483 -284.405 722.739 -236.816 666.945 -212.201C620.996 -192.509 652.176 -249.944 648.894 -267.995C643.971 -289.328 630.842 -287.687 616.073 -276.2C588.176 -256.508 570.125 -217.124 553.715 -187.586C530.74 -146.56 506.125 -105.534 478.228 -66.15C456.895 -34.9706 432.279 -8.7146 409.305 20.8237C394.536 40.5159 383.049 63.4901 369.921 86.4644C358.434 106.157 337.628 19.0899 324.5 35.5C291.68 74.8844 297.807 183.244 253.5 209.5C246.936 214.423 227.705 211.141 219.5 209.5C204.731 206.218 221.141 120.769 219.5 106C217.859 91.2309 207.91 66.359 191.5 68C184.936 68 169.717 81.5414 164.794 86.4644C148.384 102.875 100.794 214.464 87.6661 232.515C66.3328 263.694 49.9226 296.515 28.5894 327.694C13.8202 349.027 -0.94882 368.719 -19 386.77V534.462C-7.51289 522.975 48.8719 454.987 62 443.5C66.923 438.577 102.435 380.5 110.64 380.5C125.409 378.859 138 390.231 138 405C136.359 419.769 58.718 546.231 62 561C66.923 582.333 87.666 598.461 110.64 591.897C131.973 586.974 150.025 568.923 164.794 552.513C299.357 401.539 232.075 365.55 369.921 219.5C383.049 204.731 458.536 78.141 478.228 76.5C506.125 73.218 495.59 116.654 512 126.5C525.128 136.346 559.231 134.705 574 126.5C605.179 108.449 698.124 -5.43256 717.816 -36.6119C750.637 -85.8424 775.252 -139.996 803.149 -190.867C831.046 -241.739 865.508 -286.046 885.2 -341.841C898.328 -369.738 903.251 -407.482 865.508 -399.277ZM671.868 -69.4322C665.304 -57.9451 658.74 -44.817 648.894 -36.6119C645.612 -34.9709 643.97 -31.689 639.047 -31.689C632.483 -31.689 629.201 -39.8939 630.842 -44.817C632.483 -49.74 635.766 -56.3042 637.407 -62.8683C642.33 -79.2784 634.124 -128.509 665.304 -123.586C691.56 -120.303 680.073 -84.2014 671.868 -69.4322Z" fill="#FFEDED"/>
<path d="M50.5 35C29.1668 30.077 2.33634 -9.26914 -15.7148 5.5V199.694C-7.50976 189.848 2.33644 178.361 10.5415 168.515C35.1568 140.617 105.141 105.243 103.5 67.5C103.5 62.577 96.782 52.282 93.5 49C91.859 44.077 53.782 35 50.5 35Z" fill="#FFEDED"/>
</svg>
