<svg width="66" height="40" viewBox="0 0 66 40" fill="none" xmlns="http://www.w3.org/2000/svg">
<g filter="url(#filter0_b_270_885)">
<rect width="66" height="40" rx="20" fill="#EF786F"/>
</g>
<path d="M30.4998 28H27.8031C27.3589 28 27 27.6492 27 27.2149V12.7851C27 12.3509 27.3589 12 27.8031 12H30.4968C30.9411 12 31.3 12.3509 31.3 12.7851V27.2149C31.3029 27.6492 30.9411 28 30.4998 28Z" fill="white"/>
<path d="M38.1969 28H35.5032C35.059 28 34.7001 27.6492 34.7001 27.2149V12.7851C34.7001 12.3509 35.059 12 35.5032 12H38.1969C38.6411 12 39 12.3509 39 12.7851V27.2149C39 27.6492 38.6411 28 38.1969 28Z" fill="white"/>
<defs>
<filter id="filter0_b_270_885" x="-42" y="-42" width="150" height="124" filterUnits="userSpaceOnUse" color-interpolation-filters="sRGB">
<feFlood flood-opacity="0" result="BackgroundImageFix"/>
<feGaussianBlur in="BackgroundImageFix" stdDeviation="21"/>
<feComposite in2="SourceAlpha" operator="in" result="effect1_backgroundBlur_270_885"/>
<feBlend mode="normal" in="SourceGraphic" in2="effect1_backgroundBlur_270_885" result="shape"/>
</filter>
</defs>
</svg>
