<svg width="1366" height="768" viewBox="0 0 1366 768" fill="none" xmlns="http://www.w3.org/2000/svg">
<mask id="mask0_237_38" style="mask-type:alpha" maskUnits="userSpaceOnUse" x="0" y="0" width="1366" height="768">
<rect width="1366" height="768" fill="#D9D9D9"/>
</mask>
<g mask="url(#mask0_237_38)">
<path d="M1234.74 148.82C1200.28 161.948 1172.39 183.282 1146.13 207.897C1134.64 217.743 1124.8 227.589 1113.31 239.076C1075.57 275.179 1036.18 306.358 1011.57 353.947C985.31 404.819 978.746 470.46 1008.28 521.331C1018.13 537.741 1037.82 554.151 1055.87 545.946C1062.44 542.664 1067.36 539.382 1072.28 534.459C1105.1 499.998 1136.28 463.896 1164.18 426.152C1174.03 413.024 1182.23 393.332 1172.39 381.845C1164.18 371.999 1135.38 394 1136.28 376.922C1137.92 345.743 1164.18 322.768 1188.8 303.076C1224.9 271.897 1261 237.435 1275.77 193.128C1280.69 180 1282.33 165.231 1272.49 155.385C1261 142.257 1246.23 143.897 1234.74 148.82Z" fill="#F5F5F5"/>
<path d="M238.646 -21.8414C228.8 -25.1234 218.954 -18.5591 212.39 -10.3541C195.979 7.69712 176.287 40.5175 176.287 65.1328C176.287 78.2609 179.569 88.1066 192.697 91.3886C218.954 99.5937 230.441 56.9276 240.287 38.8764C248.492 24.1073 256.697 7.69722 251.774 -8.71294C248.492 -15.277 245.21 -20.2004 238.646 -21.8414Z" fill="#F5F5F5"/>
<path d="M45.0027 53.6434C23.6695 48.7203 2.33633 60.2072 -15.7148 74.9764V199.694C-7.50976 189.848 2.33644 178.361 10.5415 168.515C35.1568 140.617 61.413 111.079 59.772 73.3358C59.772 68.4127 58.1309 63.4894 54.8489 60.2073C53.2079 55.2843 48.2847 53.6434 45.0027 53.6434Z" fill="#F5F5F5"/>
<path d="M865.508 -399.277C842.534 -394.354 812.995 -345.123 798.226 -328.713C760.483 -284.405 722.739 -236.816 666.945 -212.201C620.996 -192.509 652.176 -249.944 648.894 -267.995C643.971 -289.328 630.842 -287.687 616.073 -276.2C588.176 -256.508 570.125 -217.124 553.715 -187.586C530.74 -146.56 506.125 -105.534 478.228 -66.15C456.895 -34.9707 432.279 -8.71463 409.305 20.8236C394.536 40.5158 383.049 63.4901 369.921 86.4643C358.434 106.156 343.665 117.644 330.537 134.054C297.716 173.438 259.973 209.541 215.665 235.797C209.101 240.72 200.896 244.002 192.691 242.361C177.922 239.079 174.64 219.387 172.999 204.618C171.358 189.849 164.794 170.156 148.384 171.797C141.82 171.797 136.896 176.72 131.973 181.643C115.563 198.053 100.794 214.464 87.6661 232.515C66.3329 263.694 49.9226 296.515 28.5894 327.694C13.8202 349.027 -0.94882 368.719 -19 386.77V534.462C-7.51289 522.974 3.97418 509.847 17.1023 498.359C22.0254 493.436 28.5894 486.872 36.7945 486.872C51.5636 485.231 59.7688 504.923 59.7688 519.693C58.1278 534.462 51.5637 550.872 54.8457 565.641C59.7688 586.974 87.666 598.461 110.64 591.897C131.973 586.974 150.025 568.923 164.794 552.513C299.357 401.539 366.639 201.336 504.484 55.2851C517.612 40.516 534.022 25.7469 553.715 24.1059C581.612 20.8239 578.33 42.1568 594.74 52.0029C607.868 61.849 627.56 53.644 642.33 45.4389C673.509 27.3877 698.124 -5.43262 717.816 -36.6119C750.637 -85.8424 775.252 -139.996 803.149 -190.867C831.046 -241.739 865.508 -286.046 885.2 -341.841C898.328 -369.738 903.251 -407.482 865.508 -399.277ZM671.868 -69.4323C665.304 -57.9451 658.74 -44.817 648.894 -36.6119C645.612 -34.9709 643.97 -31.6891 639.047 -31.6891C632.483 -31.6891 629.201 -39.894 630.842 -44.817C632.483 -49.7401 635.766 -56.3042 637.407 -62.8683C642.33 -79.2784 634.124 -128.509 665.304 -123.586C691.56 -120.304 680.073 -84.2014 671.868 -69.4323Z" fill="#F5F5F5"/>
<path d="M17.1055 913.531C23.6695 842.967 56.4899 770.763 33.5156 705.122C31.8746 696.917 26.9515 690.353 20.3875 687.071C8.90035 682.148 -2.58666 690.352 -10.7917 698.558C-12.4328 700.199 -14.0738 701.84 -15.7148 703.481V954.556H25.3106C17.1055 944.71 15.4645 926.659 17.1055 913.531Z" fill="#F5F5F5"/>
<path d="M578.334 216.105C560.283 222.669 547.155 239.079 535.668 253.848C501.207 298.156 474.951 349.027 445.412 396.616C355.156 539.385 227.157 659.179 154.952 811.794C141.824 841.332 128.696 872.511 112.286 900.409C102.44 916.819 86.0297 941.434 67.9785 952.921H255.054C255.054 952.921 255.054 952.921 256.695 951.28C282.952 920.101 309.208 888.922 323.977 852.819C328.9 838.05 333.823 823.281 328.9 808.512C323.977 793.742 305.926 783.896 292.798 790.46C286.234 777.332 289.516 762.563 296.08 751.076C302.644 739.589 314.131 729.743 323.977 719.897C414.233 631.282 473.309 516.411 561.924 427.796C584.898 404.821 611.155 381.847 632.488 357.232C655.462 329.335 668.59 299.797 660.385 262.053C652.18 229.233 606.232 204.618 578.334 216.105Z" fill="#F5F5F5"/>
<path d="M1082.13 74.9716C1067.36 73.3306 1054.23 61.8438 1050.95 47.0746C1049.31 38.8695 1050.95 29.0234 1044.39 22.4594C1039.46 15.8953 1027.97 15.895 1019.77 17.536C1014.85 17.536 1009.92 19.1771 1005 19.1771C998.436 17.5361 975.462 1.12604 975.462 -3.79701C973.821 -8.72006 977.103 -13.643 978.744 -18.5661C991.873 -43.1813 1013.21 -61.2327 1032.9 -79.2839C1054.23 -97.3351 1075.56 -113.745 1091.97 -136.719C1106.74 -156.412 1119.87 -192.514 1108.38 -217.129C1088.69 -256.514 1029.62 -202.36 1011.56 -185.95C947.565 -126.873 883.565 -67.7966 819.566 -10.361C790.027 17.5363 757.207 47.0746 747.361 88.1C740.797 112.715 749.002 145.536 773.617 153.741C796.592 161.946 880.283 104.51 883.565 148.817C883.565 155.381 881.924 163.587 878.642 170.151C811.361 342.458 630.849 426.149 545.516 585.328C535.67 605.02 527.465 631.276 543.875 646.046C550.439 650.969 560.285 654.251 568.49 654.251C589.824 657.533 612.798 655.892 635.772 652.61C648.9 649.328 666.951 646.045 675.156 657.532C686.643 672.302 671.874 691.994 657.105 705.122C583.259 769.122 509.414 833.121 433.927 897.121C412.594 915.172 391.26 934.864 373.209 956.198H629.208C645.618 944.71 658.746 931.582 665.31 913.531C676.797 879.07 709.618 872.506 730.951 847.89C755.566 818.352 780.181 792.096 808.079 765.84C849.104 723.173 886.847 675.584 919.668 626.353C931.155 608.302 942.642 580.405 926.232 565.636C921.309 560.713 913.104 559.072 904.899 557.431C885.206 555.79 867.155 559.072 847.463 560.713C827.771 560.713 806.438 555.79 796.591 541.021C762.13 491.79 834.335 440.918 857.309 404.816C891.77 352.303 932.796 307.996 978.744 265.33C1016.49 229.227 1055.87 196.407 1088.69 155.382C1100.18 140.613 1119.87 117.638 1114.95 94.664C1111.67 71.6897 1098.54 76.6126 1082.13 74.9716Z" fill="#F5F5F5"/>
<path d="M1219.97 549.226C1215.04 545.944 1208.48 545.944 1203.56 547.585C1178.94 552.508 1164.17 577.123 1152.69 600.097C1137.92 626.353 1123.15 652.61 1106.74 678.866C1091.97 701.84 1091.97 655.892 1088.69 650.969C1082.12 637.84 1073.92 632.917 1057.51 636.199C1034.53 641.123 1016.48 652.61 1000.07 670.661C922.943 752.712 868.789 852.814 817.918 954.557H963.968C967.25 949.633 970.532 944.71 973.815 938.146C986.943 915.172 1001.71 892.198 1024.69 882.352C1027.97 880.711 1032.89 879.07 1036.17 882.352C1039.46 883.993 1039.46 887.275 1041.1 890.557C1046.02 900.403 1055.87 905.326 1067.35 903.685C1101.81 898.762 1110.02 836.404 1119.86 811.788C1146.12 754.353 1177.3 698.558 1203.56 641.122C1213.4 621.43 1223.25 601.738 1226.53 580.405C1231.45 568.918 1229.81 555.79 1219.97 549.226Z" fill="#F5F5F5"/>
<path d="M1461.2 242.358C1452.99 252.204 1443.15 262.05 1433.3 271.896C1402.12 304.716 1320.07 362.152 1325 414.665C1328.28 437.639 1344.69 445.844 1364.38 447.485C1387.35 449.126 1420.17 431.075 1423.46 462.254C1428.38 503.279 1415.25 541.023 1392.28 575.484C1366.02 614.868 1334.84 652.612 1326.64 698.56C1325 705.124 1325 713.33 1326.64 719.894C1329.92 729.74 1338.12 736.304 1344.69 744.509C1367.66 772.406 1362.74 815.073 1347.97 849.534C1333.2 883.995 1311.87 915.175 1305.3 951.277C1305.3 952.918 1305.3 954.559 1305.3 956.2H1367.66C1405.41 929.944 1436.58 893.841 1459.56 854.457V242.358H1461.2Z" fill="#F5F5F5"/>
</g>
</svg>
