<svg width="235" height="116" viewBox="0 0 235 116" fill="none" xmlns="http://www.w3.org/2000/svg">
<path d="M56.1174 21.9824L44.5746 46.071L33.0318 21.9824H24.7559V23.8713L39.9771 53.6289H49.1694L64.3907 23.8713V21.9824H56.1174Z" fill="white"/>
<path d="M69.752 21.9824V53.6289H78.9469V21.9824H69.752Z" fill="white"/>
<path d="M118.838 53.6289V46.071H95.2926V21.9824H86.0977V53.6289H118.838Z" fill="white"/>
<path d="M132.016 53.6289L134.938 47.4882H152.151L155.112 53.6289H163.388V51.74L148.156 21.9824H138.954L123.74 51.74V53.6289H132.016ZM138.348 40.4044L143.559 29.5968L148.767 40.4044H138.348Z" fill="white"/>
<path d="M192.643 21.9824L181.097 46.071L169.555 21.9824H161.281V23.8713L176.503 53.6289H185.695L200.916 23.8713V21.9824H192.643Z" fill="white"/>
<path d="M206.279 21.9824V53.6289H215.474V21.9824H206.279Z" fill="white"/>
<path d="M36.4336 79.9521C36.4336 88.4999 40.4706 95.4904 54.9244 95.4904H56.7623C61.2048 95.4776 65.6296 94.9704 69.9411 93.9798V86.2328C65.5683 87.3762 61.0513 87.9799 56.5073 88.0283C45.833 88.0283 45.833 84.0983 45.833 78.724C45.833 73.3497 45.833 69.4639 56.5073 69.4639C61.0492 69.4941 65.5667 70.0822 69.9411 71.2127V63.5123C65.6364 62.4832 61.2085 61.96 56.7623 61.9551H54.9244C40.4706 61.9551 36.4336 68.9456 36.4336 77.4958V79.9521Z" fill="white"/>
<path d="M82.9141 94.5464L85.8356 88.4057H103.046L106.01 94.5464H114.284V92.6575L99.0464 62.8975H89.8541L74.6328 92.6575V94.5464H82.9141ZM89.2485 81.3194L94.4595 70.5119L99.6679 81.3194H89.2485Z" fill="white"/>
<path d="M143.126 88.0741L152.727 75.6528V94.5464H161.92V62.8975H152.727L140.775 79.0989L128.824 62.8975H119.629V94.5464H128.824V75.6528L138.425 88.0741H143.126Z" fill="white"/>
<path d="M203.804 73.2897C203.804 67.0558 200.636 61.9541 189.196 61.9541H187.765C181.52 61.9531 175.28 62.268 169.072 62.8973V94.5462H178.262V86.0426C181.582 86.5167 185.106 86.5167 188.785 86.5167H190.214C200.838 86.5167 203.802 81.4151 203.802 75.1786V73.2897H203.804ZM187.356 78.9588C184.19 78.9588 181.433 78.9097 178.265 78.5339V69.937C181.635 69.652 185.568 69.512 187.714 69.512C194.62 69.512 194.62 71.4476 194.62 74.2354C194.62 76.9741 194.62 78.9588 187.367 78.9588H187.356Z" fill="white"/>
<path fill-rule="evenodd" clip-rule="evenodd" d="M0 0H94.4893V4.83331H0V0Z" fill="white"/>
<path fill-rule="evenodd" clip-rule="evenodd" d="M139.984 111.167H234.474V116H139.984V111.167Z" fill="white"/>
</svg>
